Lifeforce 1985 BRRip XviD PsiX

 
http://www.freeimgshost.com/fullsize/1a1numkxerxlwmjicmmp.jpg
 
http://www.freeimgshost.com/fullsize/midlr3wf0gvm3udcztw.jpg






The crew of the space shuttle Churchill finds a 150-mile long spaceship 
hidden in the corona of Halley's comet. The crew finds hundreds of dead,
 shrivelled bat-like creatures and three naked humanoid bodies (two male 
and one female) in suspended animation within glass containers. The crew 
recovers the three aliens and begins the return trip to Earth.

During the return journey, mission control loses contact with the shuttle 
and a rescue mission is launched to investigate. The rescuers discover that 
the Churchill has been severely damaged by fire, with its internal components
 destroyed, and the three containers bearing the aliens are all that remain
 intact. The aliens are taken to the European Space Research Centre in
 London where they...



Directed by............Tobe Hooper
Produced by.............Yoram Globus
Menahem Golan

Screenplay by...........Dan O'Bannon
Don Jakoby

Based on 	The Space Vampires 
by Colin Wilson

Starring..........Steve Railsback
Peter Firth
Frank Finlay
Mathilda May

Music by.........Henry Mancini 





 
http://www.freeimgshost.com/fullsize/nnwtnf7388ibryfy19.png
 
http://www.freeimgshost.com/fullsize/h638umst4j0eu1kcb1l.png
 
http://www.freeimgshost.com/fullsize/i381g5k3s4p92v4w335j.png
 
http://www.freeimgshost.com/fullsize/zc19ipy6528rhjr1im4.png





Lifeforce.1985.BRRip.x264.AC3-PsiX.mkv
Format : Matroska
Format version : Version 2
File size : 1.45 GiB
Duration : 1h 56mn
Overall bit rate : 1 788 Kbps
Encoded date : UTC 2013-06-17 13:30:31
Writing application : mkvmerge v6.2.0 ('Promised Land') built on Apr 28 2013 12:22:01
Writing library : libebml v1.3.0 + libmatroska v1.4.0

Video
ID : 1
Format : AVC
Format/Info : Advanced Video Codec
Format profile : High@L4.1
Format settings, CABAC : Yes
Format settings, ReFrames : 5 frames
Codec ID : V_MPEG4/ISO/AVC
Duration : 1h 56mn
Bit rate : 1 339 Kbps
Width : 720 pixels
Height : 304 pixels
Display aspect ratio : 2.35:1
Frame rate mode : Constant
Frame rate : 23.976 fps
Color space : YUV
Chroma subsampling : 4:2:0
Bit depth : 8 bits
Scan type : Progressive
Bits/(Pixel*Frame) : 0.255
Stream size : 1.06 GiB (73%)
Writing library : x264 core 133 r2334 a3ac64b


Audio
ID : 2
Format : AC-3
Format/Info : Audio Coding 3
Mode extension : CM (complete main)
Format settings, Endianness : Big
Codec ID : A_AC3
Duration : 1h 56mn
Bit rate mode : Constant
Bit rate : 448 Kbps
Channel(s) : 6 channels
Channel positions : Front: L C R, Side: L R, LFE
Sampling rate : 48.0 KHz
Bit depth : 16 bits
Compression mode : Lossy
Stream size : 373 MiB (25%)
Language : English
Default : Yes
Forced : No



Encoded............: PsiX
Source.............: 1080p-HD4U
Subs..........No

